<svg xmlns="http://www.w3.org/2000/svg" viewBox="0 0 64 64">
  <rect width="64" height="64" rx="15" fill="#080a0d"/>
  <g transform="translate(4 13) scale(.58)">
    <path fill="#d7ff63" d="M5 59 18 5h9L14 59z"/>
    <path fill="#f3f0e9" d="M46 6h11L38 38h10V27h9v11h7v9h-7v11h-9V47H25v-9L46 6Z"/>
    <path fill="#f3f0e9" fill-rule="evenodd" d="M79 5c9 0 15 5 15 13 0 5-2.5 9-7 12 5 2.5 8 7 8 13 0 10-6 16-16 16s-16-6-16-16c0-6 3-10.5 8-13-4.5-3-7-7-7-12 0-8 6-13 15-13Zm0 8c-3.5 0-6 2-6 5s2.5 5.5 6 5.5 6-2.5 6-5.5-2.5-5-6-5Zm0 23c-4 0-7 2.5-7 6.5s3 6.5 7 6.5 7-2.5 7-6.5-3-6.5-7-6.5Z"/>
  </g>
</svg>
